<?xml version="1.0" encoding="UTF-8" standalone="no"?>
<!-- Created with Inkscape (http://www.inkscape.org/) -->

<svg
   width="5mm"
   height="5mm"
   viewBox="0 0 5 5"
   version="1.1"
   id="svg1"
   xml:space="preserve"
   inkscape:version="1.4 (e7c3feb100, 2024-10-09)"
   sodipodi:docname="icon.svg"
   xmlns:inkscape="http://www.inkscape.org/namespaces/inkscape"
   xmlns:sodipodi="http://sodipodi.sourceforge.net/DTD/sodipodi-0.dtd"
   xmlns="http://www.w3.org/2000/svg"
   xmlns:svg="http://www.w3.org/2000/svg"><sodipodi:namedview
     id="namedview1"
     pagecolor="#000000"
     bordercolor="#000000"
     borderopacity="0.25"
     inkscape:showpageshadow="2"
     inkscape:pageopacity="0.0"
     inkscape:pagecheckerboard="0"
     inkscape:deskcolor="#d1d1d1"
     inkscape:document-units="mm"
     inkscape:zoom="10.052575"
     inkscape:cx="25.267158"
     inkscape:cy="6.664959"
     inkscape:window-width="1366"
     inkscape:window-height="754"
     inkscape:window-x="0"
     inkscape:window-y="0"
     inkscape:window-maximized="1"
     inkscape:current-layer="layer1" /><defs
     id="defs1" /><g
     inkscape:label="Layer 1"
     inkscape:groupmode="layer"
     id="layer1"><g
       id="g18"
       transform="matrix(0.04893591,0,0,0.04893591,-1.479501,-1.1779681)"><path
         style="fill:#1bbee6;fill-opacity:1"
         d="m 81.673526,123.91725 c -2.387969,-0.39958 -6.221713,-1.58078 -8.519432,-2.62489 -2.297718,-1.04412 -4.561044,-1.94104 -5.029613,-1.99318 -2.657213,-0.29563 -4.891162,-1.73741 -7.637087,-4.92893 -1.696166,-1.97141 -3.619819,-4.16973 -4.274785,-4.88515 -2.975493,-3.25016 -3.828301,-10.154159 -2.04689,-16.570829 1.265684,-4.55902 6.223134,-9.37046 10.998016,-10.6741 2.096979,-0.57252 4.291907,-1.17681 4.877618,-1.34288 2.056286,-0.58301 1.033229,-1.89845 -2.129858,-2.73856 -1.967534,-0.52257 -2.494691,-0.88235 -1.372296,-0.93657 2.634068,-0.12726 5.812462,-2.94561 5.180163,-4.59335 -0.287651,-0.74961 -2.17261,-1.85563 -4.188799,-2.45783 -2.016189,-0.60219 -4.519542,-2.10614 -5.563008,-3.34209 -2.598989,-3.07843 -10.019096,-6.18206 -13.2399,-5.5379 -2.516627,0.50332 -2.518636,0.50043 -1.126869,-1.62368 1.291951,-1.97176 1.290992,-2.28549 -0.01307,-4.27574 -1.783516,-2.72199 -1.254278,-7.20533 1.575035,-13.34261 2.621281,-5.68603 7.780189,-11.01975 13.607813,-14.06892 3.818985,-1.9982 5.53594,-2.35673 11.317514,-2.36328 4.855226,-0.006 7.550666,0.40877 9.371375,1.44032 2.332276,1.32139 2.388164,1.45103 0.638958,1.48215 -2.124747,0.0378 -2.702813,1.738 -0.590921,1.738 2.032169,0 9.16531,7.91586 11.767208,13.05842 4.671457,9.23297 3.186097,19.20056 -3.931791,26.38452 -2.22734,2.24802 -4.049709,4.4114 -4.049709,4.80753 0,1.62606 2.922067,1.66076 5.836525,0.0693 4.896765,-2.67391 9.654867,-3.35055 16.975937,-2.41412 9.80382,1.25399 16.14394,0.5147 22.40124,-2.61211 2.9277,-1.46299 5.45355,-2.65998 5.61299,-2.65998 2.18468,0 -5.69171,8.8163 -10.23066,11.45152 -3.97593,2.30834 -10.54198,4.1474 -21.5947,6.04837 -7.309799,1.25722 -13.425483,2.85799 -12.881826,3.3718 0.148537,0.14038 2.953689,-0.26711 6.23367,-0.90554 6.819556,-1.32738 16.404986,-1.5278 21.085596,-0.44086 3.86929,0.89854 4.1383,0.38386 0.58113,-1.11181 l -2.61366,-1.09896 4.10456,-1.56745 c 8.84003,-3.37581 19.30465,-11.28954 20.90563,-15.80959 0.23677,-0.66847 0.69875,-0.96768 1.02663,-0.6649 1.05251,0.97193 -1.2718,11.25245 -3.42005,15.12702 -1.14364,2.06267 -1.92624,3.90343 -1.7391,4.09056 0.18714,0.18714 1.53455,-1.10863 2.99424,-2.87949 l 2.65398,-3.21975 -0.008,2.96293 c -0.0113,4.00949 -3.38042,10.8525 -7.07146,14.36265 -1.66579,1.58416 -5.06727,3.584359 -7.55883,4.444889 -4.04253,1.3962 -4.25502,1.58316 -1.97428,1.73709 1.40571,0.0949 3.8018,0.10988 5.32465,0.0333 1.52284,-0.0765 2.76881,0.0585 2.76881,0.30006 0,1.0513 -8.36815,5.60757 -13.33419,7.26016 -3.88011,1.29122 -6.97835,1.72429 -10.8761,1.52026 -2.99771,-0.15691 -5.24558,0.0441 -4.99526,0.44676 1.08973,1.75282 -12.783067,-1.81584 -16.660312,-4.28572 -3.381173,-2.15387 -2.960869,-0.63391 0.605859,2.19099 4.172697,3.30484 9.234843,5.54905 15.710573,6.96499 5.8243,1.27351 5.12204,1.94294 -3.41357,3.25398 -8.397401,1.2898 -13.629542,1.18071 -18.934934,-0.39483 -2.474107,-0.73473 -4.65417,-1.18008 -4.844585,-0.98966 -0.190415,0.19041 1.572584,1.39055 3.917775,2.66696 6.05137,3.29357 5.84991,3.48892 -2.207635,2.14067 z"
         id="path3" /><path
         style="fill:#0097bd;fill-opacity:1"
         d="m 113.01105,36.453821 c 0.23423,-1.22747 1.37424,-1.53513 6.45205,-1.74121 5.7253,-0.23236 6.16755,-0.12546 6.16755,1.4909 0,1.60037 -0.52186,1.74121 -6.45204,1.74121 -5.68522,0 -6.41823,-0.17719 -6.16756,-1.4909 z"
         id="path18" /><path
         style="fill:#0097bd;fill-opacity:1"
         d="m 131.33972,38.258151 c -0.32857,-0.32858 -0.59741,-1.32693 -0.59741,-2.21856 0,-1.1939 0.50519,-1.5494 1.91687,-1.34891 1.25313,0.17797 1.91687,0.85819 1.91687,1.96446 0,1.68991 -2.10619,2.73315 -3.23633,1.60301 z"
         id="path17" /><path
         style="fill:#0097bd;fill-opacity:1"
         d="m 105.23853,37.584441 c -1.32251,-1.59352 -0.48333,-3.04749 1.7589,-3.04749 1.27361,0 1.64305,0.47446 1.44062,1.85014 -0.34019,2.31194 -1.8161,2.86427 -3.19952,1.19735 z"
         id="path16" /><path
         style="fill:#0097bd;fill-opacity:1"
         d="m 159.70838,53.389231 c 0,-2.0772 1.07244,-2.8542 2.94674,-2.13496 1.97091,0.75631 1.24672,3.24954 -1.03857,3.57558 -1.43381,0.20456 -1.90817,-0.15357 -1.90817,-1.44062 z"
         id="path15" /><path
         style="fill:#0097bd;fill-opacity:1"
         d="m 102.78191,53.066711 0.27224,-1.91687 23.85442,-0.24699 c 26.70411,-0.27649 29.39204,-0.0556 29.39204,2.41545 0,1.61725 -0.77579,1.66528 -26.89547,1.66528 h -26.89547 z"
         id="path14" /><path
         style="fill:#0097bd;fill-opacity:1"
         d="m 101.25912,63.007371 c 0.28441,-0.74118 0.51712,-1.69962 0.51712,-2.12986 0,-0.43504 4.92788,-0.78227 11.102,-0.78227 9.3936,0 11.18254,0.20988 11.62538,1.3639 0.89521,2.33289 -1.488,2.86929 -12.80819,2.88277 -9.64131,0.0115 -10.89149,-0.14838 -10.43631,-1.33454 z"
         id="path13" /><path
         style="fill:#0097bd;fill-opacity:1"
         d="m 174.75937,67.194771 c -1.24822,-1.24823 -0.52964,-3.69175 1.08565,-3.69175 2.17465,0 3.01171,1.46655 1.72319,3.01912 -1.12471,1.35519 -1.93277,1.5487 -2.80884,0.67263 z"
         id="path12" /><path
         style="fill:#0097bd;fill-opacity:1"
         d="m 166.52392,77.225261 c 0,-2.06172 2.13145,-2.90695 3.41883,-1.35575 1.25133,1.50776 0.3827,2.96848 -1.76522,2.96848 -1.05449,0 -1.65361,-0.5843 -1.65361,-1.61273 z"
         id="path11" /><path
         style="fill:#000000"
         d="m 52.102722,69.769391 c 0.329435,-0.85849 -0.07561,-1.84954 -1.045878,-2.55902 -2.087268,-1.52625 -3.411725,-0.19271 -2.150035,2.16478 1.151488,2.15158 2.459637,2.31295 3.195913,0.39424 z"
         id="path10" /><path
         style="fill:#f17d1d;fill-opacity:1"
         d="m 38.159537,78.904741 c -5.602948,-2.65066 -7.54112,-4.98717 -6.750374,-8.13776 0.467859,-1.8641 2.62127,-2.96763 5.839754,-2.99262 0.824053,-0.006 3.049891,-1.13561 4.946307,-2.50937 1.896416,-1.37376 4.0975,-2.36816 4.891296,-2.20979 4.713711,0.94043 6.938879,1.72029 10.175685,3.56631 1.991417,1.13574 3.620759,2.63886 3.620759,3.34026 0,1.77379 -11.56441,7.17695 -15.310943,7.15363 -1.65321,-0.0103 -4.69226,-0.78386 -6.753445,-1.71903 -4.235551,-1.9217 -5.336196,-1.6206 -3.101687,0.8485 4.26465,4.71239 12.008454,4.29346 22.352438,-1.20923 5.962957,-3.17212 7.493242,-3.66332 9.287446,-2.98117 2.909439,1.10617 1.79337,2.52381 -1.986925,2.52381 -1.922297,0 -5.567951,1.28093 -9.698809,3.40777 -7.928469,4.0821 -10.535574,4.21887 -17.511502,0.91869 z"
         id="path9" /><path
         style="fill:#0097bd;fill-opacity:1"
         d="m 150.337,86.079511 v -2.12986 h 16.56262 c 16.68538,0 18.81675,0.38689 16.6322,3.01913 -0.8349,1.00599 -4.07091,1.24059 -17.11221,1.24059 H 150.337 Z"
         id="path8" /><path
         style="fill:#0097bd;fill-opacity:1"
         d="m 182.23435,95.795111 c -0.90032,-1.45674 1.94031,-3.90687 3.13936,-2.70782 0.53414,0.53414 0.74059,1.57199 0.4588,2.30633 -0.58962,1.53652 -2.74784,1.77734 -3.59816,0.40149 z"
         id="path7" /><path
         style="fill:#0097bd;fill-opacity:1"
         d="m 146.92973,95.023981 c 0.87505,-1.63503 1.58727,-1.74258 10.05499,-1.51833 7.42542,0.19665 9.11323,0.47803 9.11323,1.51927 0,1.05016 -1.79203,1.32076 -10.05498,1.51832 -9.93036,0.23743 -10.04331,0.2186 -9.11324,-1.51926 z"
         id="path6" /><path
         style="fill:#000000"
         d="m 81.544065,65.612031 c 2.538149,-2.53815 3.137035,-4.93403 2.168054,-8.67346 -0.918883,-3.54608 -3.612117,-5.36276 -7.950321,-5.36276 -4.037117,0 -7.100903,2.5982 -9.315572,7.89993 -2.314008,5.53955 0.390372,8.13134 8.590612,8.23299 3.564377,0.0442 4.747591,-0.33706 6.507227,-2.0967 z"
         id="path4" /><path
         style="fill:#ffffff"
         d="m 69.710481,62.225101 c -0.753651,-1.96398 0.305037,-3.83374 2.170727,-3.83374 2.10877,0 2.899588,1.22522 2.204456,3.41539 -0.630171,1.98549 -3.662549,2.27545 -4.375183,0.41835 z"
         id="path5" /></g></g></svg>
